HIERARCHY
ROOT Hips
{
 OFFSET 0.000000 0.000000 0.000000
 CHANNELS 6 Xposition Yposition Zposition Yrotation Xrotation Zrotation
 JOINT Chest
 {
  OFFSET 0.000000 9.585900 0.002600
  CHANNELS 3 Yrotation Xrotation Zrotation
  JOINT Chest2
  {
   OFFSET 0.000000 9.601200 -0.005300
   CHANNELS 3 Yrotation Xrotation Zrotation
   JOINT Chest3
   {
    OFFSET 0.000000 9.561800 0.000000
    CHANNELS 3 Yrotation Xrotation Zrotation
    JOINT Chest4
    {
     OFFSET 0.000000 9.552100 0.000000
     CHANNELS 3 Yrotation Xrotation Zrotation
     JOINT Neck
     {
      OFFSET 0.000000 14.453000 0.000000
      CHANNELS 3 Yrotation Xrotation Zrotation
      JOINT Head
      {
       OFFSET 0.000000 8.936500 -0.011300
       CHANNELS 3 Yrotation Xrotation Zrotation
       End Site
       {
        OFFSET 0.000000 17.073600 -0.006000
       }
      }
     }
     JOINT RightCollar
     {
      OFFSET -2.921100 9.558500 0.000000
      CHANNELS 3 Yrotation Xrotation Zrotation
      JOINT RightShoulder
      {
       OFFSET -13.519700 0.000000 0.000000
       CHANNELS 3 Yrotation Xrotation Zrotation
       JOINT RightElbow
       {
        OFFSET 0.000000 -29.696600 0.000000
        CHANNELS 3 Yrotation Xrotation Zrotation
        JOINT RightWrist
        {
         OFFSET 0.000000 -24.004700 0.000000
         CHANNELS 3 Yrotation Xrotation Zrotation
         End Site
         {
          OFFSET 0.000000 -17.728500 0.000000
         }
        }
       }
      }
     }
     JOINT LeftCollar
     {
      OFFSET 2.921100 9.558500 0.000000
      CHANNELS 3 Yrotation Xrotation Zrotation
      JOINT LeftShoulder
      {
       OFFSET 13.519700 0.000000 0.000000
       CHANNELS 3 Yrotation Xrotation Zrotation
       JOINT LeftElbow
       {
        OFFSET 0.000000 -29.696600 0.000000
        CHANNELS 3 Yrotation Xrotation Zrotation
        JOINT LeftWrist
        {
         OFFSET 0.000000 -24.004700 0.000000
         CHANNELS 3 Yrotation Xrotation Zrotation
         End Site
         {
          OFFSET 0.000000 -17.728500 0.000000
         }
        }
       }
      }
     }
    }
   }
  }
 }
 JOINT RightHip
 {
  OFFSET -7.771700 -0.012900 -0.001300
  CHANNELS 3 Yrotation Xrotation Zrotation
  JOINT RightKnee
  {
   OFFSET 0.000000 -40.869800 0.001200
   CHANNELS 3 Yrotation Xrotation Zrotation
   JOINT RightAnkle
   {
    OFFSET 0.000000 -39.717900 0.002100
    CHANNELS 3 Yrotation Xrotation Zrotation
    JOINT RightToe
    {
     OFFSET 0.000000 -4.965400 11.033500
     CHANNELS 3 Yrotation Xrotation Zrotation
     End Site
     {
      OFFSET 0.000000 -1.423100 5.872300
     }
    }
   }
  }
 }
 JOINT LeftHip
 {
  OFFSET 7.771700 -0.012900 -0.001300
  CHANNELS 3 Yrotation Xrotation Zrotation
  JOINT LeftKnee
  {
   OFFSET 0.000000 -40.869800 0.001200
   CHANNELS 3 Yrotation Xrotation Zrotation
   JOINT LeftAnkle
   {
    OFFSET 0.000000 -39.717900 0.002100
    CHANNELS 3 Yrotation Xrotation Zrotation
    JOINT LeftToe
    {
     OFFSET 0.000000 -4.965400 11.033500
     CHANNELS 3 Yrotation Xrotation Zrotation
     End Site
     {
      OFFSET 0.000000 -1.423100 5.872300
     }
    }
   }
  }
 }
}
MOTION
Frames: 5
Frame Time: 0.008333
-16.103923 56.863431 71.349336 -178.577920 -32.194569 -2.533946 2.153499 18.699887 4.509241 0.164791 2.232244 0.322371 0.278768 3.680912 0.535628 1.557160 16.327431 2.551367 -1.198305 13.043279 -1.144231 -1.809066 -11.577589 -1.684670 5.073284 -3.886964 -2.377152 17.581144 -22.826651 -19.703659 138.397919 -73.451004 -99.212019 17.647814 -19.725837 -56.510850 -7.396654 -3.326869 -3.456486 -2.460018 -13.073443 3.327525 47.177249 -59.236933 -83.936690 -3.202255 4.178621 10.660298 13.078643 -39.628864 -7.320469 -4.631564 67.601948 -3.978578 4.824236 7.478928 10.528984 -0.052413 0.142260 -0.009030 -8.879197 -47.320745 5.764666 25.736740 66.018473 24.010138 -19.971105 33.125197 -0.041887 -0.046263 -17.105046 -5.738530
-16.106779 56.861771 71.352673 -178.567468 -32.197789 -2.538802 2.160384 18.686752 4.501128 0.165394 2.230769 0.321110 0.279836 3.678757 0.533343 1.553425 16.333327 2.556288 -1.191112 13.070670 -1.149933 -1.810222 -11.499698 -1.664535 5.095207 -3.875186 -2.384440 17.567035 -22.955005 -19.712401 138.599174 -73.118398 -99.631241 17.624877 -19.790568 -56.571819 -7.393190 -3.278962 -3.491145 -2.357155 -13.230822 2.992864 47.626102 -59.584715 -84.208149 -3.211661 4.040749 10.562694 13.086392 -39.623759 -7.322130 -4.652265 67.598904 -4.000941 4.819499 7.478587 10.539972 -0.060224 0.141414 -0.015739 -8.866512 -47.322249 5.756117 25.708064 66.022220 23.980292 -19.954226 33.134734 -0.022168 -0.065213 -17.106619 -5.734672
-16.110692 56.861471 71.353922 -178.556994 -32.216313 -2.533948 2.164367 18.684310 4.484236 0.166112 2.229304 0.319529 0.280651 3.676285 0.530689 1.549663 16.343121 2.560626 -1.180028 13.100114 -1.153670 -1.811073 -11.415347 -1.640300 5.140851 -3.867316 -2.405730 17.523439 -23.080847 -19.710319 138.765334 -72.780309 -100.018138 17.580022 -19.837027 -56.589695 -7.387946 -3.230608 -3.527402 -2.247244 -13.389374 2.671713 48.064673 -59.931390 -84.499931 -3.177061 3.850127 10.535272 13.084027 -39.601899 -7.318688 -4.664034 67.598403 -4.031090 4.813678 7.470512 10.551091 -0.064466 0.145245 -0.015457 -8.847836 -47.305023 5.737550 25.689431 66.023477 23.951299 -19.951264 33.135185 0.003799 -0.074611 -17.101388 -5.739655
-16.114669 56.862456 71.353187 -178.549727 -32.248018 -2.523065 2.166263 18.694352 4.460140 0.167526 2.227507 0.318187 0.283311 3.673590 0.528624 1.582475 16.304764 2.522264 -1.189966 13.179786 -1.103052 -1.816718 -11.353178 -1.613559 5.128379 -3.816600 -2.356810 17.510009 -23.203590 -19.730395 138.892063 -72.454092 -100.372524 17.516742 -19.865688 -56.568125 -7.427744 -3.144745 -3.492159 -2.123819 -13.534063 2.346352 48.508998 -60.307011 -84.819118 -3.096973 3.602150 10.623446 13.078744 -39.567207 -7.307818 -4.682230 67.600154 -4.077478 4.806376 7.462442 10.562973 -0.068339 0.146730 -0.012700 -8.820219 -47.271752 5.712891 25.673907 66.024070 23.922179 -19.954591 33.127565 0.027941 -0.067246 -17.091002 -5.747914
-16.116375 56.862528 71.353978 -178.542055 -32.266370 -2.520882 2.187596 18.669345 4.444489 0.157544 2.245430 0.327144 0.284888 3.670674 0.525494 1.576346 16.313054 2.522693 -1.179739 13.214616 -1.103499 -1.811922 -11.251487 -1.577208 5.163422 -3.811797 -2.375217 17.491228 -23.323653 -19.745585 138.984997 -72.147256 -100.695532 17.446104 -19.872998 -56.515500 -7.427399 -3.100056 -3.544174 -2.025171 -13.687222 2.093592 48.984211 -60.716936 -85.173780 -2.970185 3.288474 10.847897 13.049122 -39.550063 -7.263650 -4.724391 67.598021 -4.174495 4.791276 7.459271 10.587520 -0.057308 0.147532 -0.014399 -8.805911 -47.249473 5.703901 25.649647 66.024104 23.891536 -19.954916 33.106286 0.022760 -0.068201 -17.068236 -5.732957
